<?xml version="1.0" standalone="no"?>
<!DOCTYPE svg PUBLIC "-//W3C//DTD SVG 20010904//EN"
 "http://www.w3.org/TR/2001/REC-SVG-20010904/DTD/svg10.dtd">
<svg version="1.0" xmlns="http://www.w3.org/2000/svg"
 width="1200.000000pt" height="1200.000000pt" viewBox="0 0 1200.000000 1200.000000"
 preserveAspectRatio="xMidYMid meet">

<g transform="translate(0.000000,1200.000000) scale(0.100000,-0.100000)"
fill="#000000" stroke="none">
<path d="M5625 10384 c-458 -47 -811 -176 -1128 -411 -148 -110 -419 -391
-578 -598 -317 -414 -449 -898 -449 -1652 l0 -193 530 0 530 0 0 58 c1 152 21
509 35 609 40 284 115 446 299 642 44 48 103 113 130 145 148 175 369 287 644
327 123 17 426 7 581 -21 289 -51 526 -176 746 -396 195 -193 316 -421 355
-666 18 -110 8 -321 -19 -422 -46 -167 -152 -326 -303 -456 -123 -105 -360
-261 -448 -294 -492 -187 -822 -558 -931 -1046 -17 -79 -19 -136 -19 -783 l0
-697 533 2 532 3 5 655 c4 530 8 660 19 680 54 98 136 155 300 207 87 27 132
48 181 83 36 26 124 86 195 135 576 389 879 800 990 1343 130 635 -30 1272
-455 1813 -85 109 -261 285 -380 380 -472 379 -963 545 -1630 554 -124 2 -243
1 -265 -1z"/>
<path d="M5600 3200 l0 -530 535 0 535 0 0 530 0 530 -535 0 -535 0 0 -530z"/>
</g>
</svg>
